<?xml version="1.0" encoding="UTF-8"?>
<svg xmlns="http://www.w3.org/2000/svg" viewBox="0 0 50 51">
  <path d="M25 50.25C21.5625 50.25 18.3427 49.5969 15.3406 48.2906C12.3385 46.9844 9.72604 45.2198 7.50313 42.9969C5.28021 40.774 3.51562 38.1615 2.20938 35.1594C0.903125 32.1573 0.25 28.9375 0.25 25.5C0.25 22.0625 0.903125 18.8427 2.20938 15.8406C3.51562 12.8385 5.28021 10.226 7.50313 8.00313C9.72604 5.78021 12.3385 4.01562 15.3406 2.70938C18.3427 1.40312 21.5625 0.75 25 0.75C28.7583 0.75 32.3219 1.55208 35.6906 3.15625C39.0594 4.76042 41.9125 7.02917 44.25 9.9625V3.5H49.75V20H33.25V14.5H40.8125C38.9333 11.9333 36.6188 9.91667 33.8688 8.45C31.1188 6.98333 28.1625 6.25 25 6.25C19.6375 6.25 15.0885 8.11771 11.3531 11.8531C7.61771 15.5885 5.75 20.1375 5.75 25.5C5.75 30.8625 7.61771 35.4115 11.3531 39.1469C15.0885 42.8823 19.6375 44.75 25 44.75C29.8125 44.75 34.0177 43.1917 37.6156 40.075C41.2135 36.9583 43.3333 33.0167 43.975 28.25H49.6125C48.925 34.5292 46.2323 39.7656 41.5344 43.9594C36.8365 48.1531 31.325 50.25 25 50.25ZM32.7 37.05L22.25 26.6V11.75H27.75V24.4L36.55 33.2L32.7 37.05Z" fill="currentColor" />
</svg> 