<svg width="20" height="20" viewBox="0 0 20 20" fill="none" xmlns="http://www.w3.org/2000/svg">
<path d="M17.9671 5.33087C16.3246 2.53244 13.4045 0.859465 10.1802 0.79863C10.0889 0.79863 9.96727 0.79863 9.87601 0.79863C6.65173 0.859465 3.73163 2.56286 2.08907 5.33087C1.26779 6.73009 0.811523 8.37265 0.811523 10.0152C0.811523 11.9924 1.41988 13.8478 2.57575 15.4296C4.30957 17.7717 6.95591 19.171 9.8456 19.2014C9.90643 19.2014 9.93685 19.2014 9.99768 19.2014C10.0585 19.2014 10.0889 19.2014 10.1498 19.2014C13.0699 19.171 15.7162 17.7717 17.4196 15.4296C18.5755 13.8478 19.1838 11.9619 19.1838 10.0152C19.2447 8.37265 18.7884 6.76051 17.9671 5.33087ZM16.2942 5.33087C15.1687 5.69589 13.9824 5.96965 12.7961 6.12174C12.4615 4.78336 11.9444 3.50581 11.2752 2.2891C13.3132 2.62369 15.0774 3.68832 16.2942 5.33087ZM9.8456 17.5588C9.29808 16.6159 8.84181 15.6425 8.50721 14.6691C9.38933 14.6083 10.3019 14.6083 11.184 14.6387C10.8494 15.6425 10.3931 16.6159 9.8456 17.5588ZM11.4273 6.24341C10.3627 6.30424 9.26766 6.30424 8.23345 6.21299C8.59847 4.90503 9.11557 3.6579 9.81518 2.47161C10.5452 3.68832 11.0927 4.93544 11.4273 6.24341ZM7.92928 7.58179C8.59847 7.64262 9.29808 7.67304 10.0281 7.67304C10.606 7.67304 11.184 7.64262 11.7315 7.61221C11.8532 8.40307 11.9444 9.22435 11.9444 10.0152C11.9444 11.1102 11.8227 12.2053 11.5794 13.2699C10.4539 13.1787 9.26766 13.2091 8.1422 13.3003C7.89886 12.2357 7.74677 11.1407 7.74677 10.0152C7.71635 9.19393 7.80761 8.37265 7.92928 7.58179ZM8.32471 2.38035C7.68594 3.56665 7.19925 4.81377 6.86466 6.09132C5.80003 5.93923 4.76583 5.69589 3.76205 5.36129C4.8875 3.80999 6.49964 2.77578 8.32471 2.38035ZM2.21074 10.0152C2.21074 8.7985 2.4845 7.61221 3.03202 6.51717C4.18789 6.9126 5.37419 7.21677 6.5909 7.39928C6.43881 8.25098 6.37797 9.13309 6.37797 10.0152C6.37797 11.1711 6.49964 12.327 6.7734 13.4524C5.64795 13.6349 4.55291 13.8783 3.45787 14.2129C2.63659 12.9657 2.21074 11.5361 2.21074 10.0152ZM4.33998 15.3992C5.25252 15.1254 6.16505 14.9429 7.108 14.7908C7.41218 15.7642 7.83802 16.7375 8.32471 17.6501C6.80382 17.3155 5.4046 16.555 4.33998 15.3992ZM11.3056 17.7413C11.8228 16.768 12.279 15.7642 12.5832 14.7604C13.6478 14.882 14.7124 15.095 15.7162 15.3992C14.5299 16.6463 13.009 17.4676 11.3056 17.7413ZM16.6288 14.2433C15.4425 13.8478 14.1953 13.6045 12.9482 13.422C13.1915 12.327 13.3132 11.1711 13.3132 10.0152C13.3132 9.16351 13.2524 8.31181 13.1003 7.46012C14.4387 7.27761 15.7771 6.97343 17.0546 6.51717C17.6021 7.58179 17.8759 8.7985 17.8759 10.0152C17.8759 11.5361 17.4196 12.9657 16.6288 14.2433Z" fill="#111928"/>
</svg>
