<svg xmlns="http://www.w3.org/2000/svg">
	<symbol id="checkmark" viewBox="0 0 20 20">
		<path
			d="M10 20C8.61667 20 7.31667 19.7375 6.1 19.2125C4.88333 18.6875 3.825 17.975 2.925 17.075C2.025 16.175 1.3125 15.1167 0.7875 13.9C0.2625 12.6833 0 11.3833 0 10C0 8.61667 0.2625 7.31667 0.7875 6.1C1.3125 4.88333 2.025 3.825 2.925 2.925C3.825 2.025 4.88333 1.3125 6.1 0.7875C7.31667 0.2625 8.61667 0 10 0C11.0833 0 12.1083 0.158333 13.075 0.475C14.0417 0.791667 14.9333 1.23333 15.75 1.8L14.3 3.275C13.6667 2.875 12.9917 2.5625 12.275 2.3375C11.5583 2.1125 10.8 2 10 2C7.78333 2 5.89583 2.77917 4.3375 4.3375C2.77917 5.89583 2 7.78333 2 10C2 12.2167 2.77917 14.1042 4.3375 15.6625C5.89583 17.2208 7.78333 18 10 18C12.2167 18 14.1042 17.2208 15.6625 15.6625C17.2208 14.1042 18 12.2167 18 10C18 9.7 17.9833 9.4 17.95 9.1C17.9167 8.8 17.8667 8.50833 17.8 8.225L19.425 6.6C19.6083 7.13333 19.75 7.68333 19.85 8.25C19.95 8.81667 20 9.4 20 10C20 11.3833 19.7375 12.6833 19.2125 13.9C18.6875 15.1167 17.975 16.175 17.075 17.075C16.175 17.975 15.1167 18.6875 13.9 19.2125C12.6833 19.7375 11.3833 20 10 20ZM8.6 14.6L4.35 10.35L5.75 8.95L8.6 11.8L18.6 1.775L20 3.175L8.6 14.6Z"
			fill="currentColor" />

	</symbol>
	<symbol id="arrow-right" viewBox="0 0 20 20">
		<path d="M15.2188 11.25H0V8.75H15.2188L8.21875 1.75L10 0L20 10L10 20L8.21875 18.25L15.2188 11.25Z"
			fill="currentColor" />
	</symbol>
	<symbol id="clock" viewBox="0 0 50 51">
		<path
			d="M25 50.25C21.5625 50.25 18.3427 49.5969 15.3406 48.2906C12.3385 46.9844 9.72604 45.2198 7.50313 42.9969C5.28021 40.774 3.51562 38.1615 2.20938 35.1594C0.903125 32.1573 0.25 28.9375 0.25 25.5C0.25 22.0625 0.903125 18.8427 2.20938 15.8406C3.51562 12.8385 5.28021 10.226 7.50313 8.00313C9.72604 5.78021 12.3385 4.01562 15.3406 2.70938C18.3427 1.40312 21.5625 0.75 25 0.75C28.7583 0.75 32.3219 1.55208 35.6906 3.15625C39.0594 4.76042 41.9125 7.02917 44.25 9.9625V3.5H49.75V20H33.25V14.5H40.8125C38.9333 11.9333 36.6188 9.91667 33.8688 8.45C31.1188 6.98333 28.1625 6.25 25 6.25C19.6375 6.25 15.0885 8.11771 11.3531 11.8531C7.61771 15.5885 5.75 20.1375 5.75 25.5C5.75 30.8625 7.61771 35.4115 11.3531 39.1469C15.0885 42.8823 19.6375 44.75 25 44.75C29.8125 44.75 34.0177 43.1917 37.6156 40.075C41.2135 36.9583 43.3333 33.0167 43.975 28.25H49.6125C48.925 34.5292 46.2323 39.7656 41.5344 43.9594C36.8365 48.1531 31.325 50.25 25 50.25ZM32.7 37.05L22.25 26.6V11.75H27.75V24.4L36.55 33.2L32.7 37.05Z"
			fill="currentColor" />

	</symbol>
	<symbol id="why-we__icon_01" viewBox="0 0 30 38">
		<path
			d="M29.8464 12.597C29.7061 12.2746 29.4784 11.9979 29.1889 11.7983C28.8995 11.5987 28.5599 11.4841 28.2087 11.4676H19.5871L21.9778 2.54484C22.054 2.26563 22.0647 1.97262 22.0092 1.68859C21.9537 1.40455 21.8335 1.13714 21.6578 0.907128C21.4825 0.679326 21.2572 0.494715 20.9995 0.367456C20.7417 0.240196 20.4582 0.17367 20.1707 0.172979H6.99367C6.56869 0.158422 6.15129 0.288183 5.80947 0.54113C5.46765 0.794077 5.22155 1.1553 5.11124 1.56598L0.0663162 20.3903C-0.00982413 20.6695 -0.0205611 20.9625 0.0349401 21.2466C0.0904413 21.5306 0.210685 21.798 0.386329 22.028C0.563627 22.2584 0.791854 22.4445 1.05313 22.5719C1.3144 22.6992 1.60162 22.7644 1.89228 22.7622H9.17729L5.77009 35.4498C5.65845 35.8589 5.68824 36.2937 5.85461 36.6838C6.02099 37.0739 6.31421 37.3964 6.68676 37.599C7.0593 37.8016 7.48935 37.8725 7.90722 37.8001C8.32509 37.7278 8.70629 37.5165 8.98905 37.2004L29.5076 14.6112C29.7519 14.3437 29.9138 14.0114 29.9739 13.6541C30.034 13.2968 29.9897 12.9298 29.8464 12.597ZM11.4174 28.9366L13.4316 21.4068C13.5077 21.1276 13.5185 20.8346 13.463 20.5506C13.4075 20.2665 13.2872 19.9991 13.1116 19.7691C12.9362 19.5413 12.711 19.3567 12.4532 19.2294C12.1954 19.1022 11.9119 19.0356 11.6245 19.035H4.39591L8.42432 3.93784H17.7047L15.314 12.8606C15.2373 13.1449 15.2283 13.4433 15.2879 13.7318C15.3474 14.0202 15.4738 14.2907 15.6569 14.5214C15.84 14.7521 16.0747 14.9366 16.3421 15.0601C16.6095 15.1836 16.9021 15.2426 17.1965 15.2324H23.9167L11.4174 28.9366Z"
			fill="currentColor" />
	</symbol>
	<symbol id="why-we__icon_02" viewBox="0 0 34 44">
		<path
			d="M8.15277 6.59388C8.37178 5.346 9.73214 5.55814 10.6135 5.31391C11.7317 5.00372 12.5953 4.13199 12.9924 3.06059C13.3289 2.15498 13.1241 0.721701 14.1604 0.489952C14.8157 0.343771 19.7408 0.35625 20.2162 0.573738C20.8714 0.875013 20.907 3.1426 21.7688 4.18903C23.058 5.75424 24.6035 5.0786 25.4742 5.78098C25.5757 5.86298 25.9567 6.54575 25.9567 6.5921V12.2076H30.8533C31.2735 12.2076 31.8255 13.1061 31.8131 13.5499C31.8042 13.8548 31.2059 14.7033 31.0314 14.7033H25.9567V19.0709C25.9567 21.3867 24.2972 23.8842 22.6662 25.4031C21.516 26.4745 21.037 26.0912 21.3272 28.2518H25.8677C29.3541 28.2518 33.1004 32.6746 33.4334 36.0083C33.5206 36.8836 33.5509 42.3654 33.3426 42.8663C33.2001 43.2104 32.5288 43.6952 32.1104 43.5936L1.38836 43.4902C0.868433 43.0927 0.724206 42.9019 0.661886 42.2566C0.138397 36.9638 0.615591 31.0898 6.19591 28.8793C6.5734 28.7296 7.94444 28.2518 8.24002 28.2518H12.7805L12.752 26.4085C10.959 25.0786 9.38136 23.5972 8.67982 21.3938C8.52135 20.8964 8.15099 19.5095 8.15099 19.0709V14.7033H3.07813C2.90185 14.7033 2.30358 13.853 2.29645 13.5499C2.28399 13.1061 2.83597 12.2076 3.25618 12.2076H8.15277C8.36109 10.5265 7.87322 8.18583 8.15277 6.5921V6.59388ZM10.8236 8.02004V12.2094H23.2877V8.02004C20.8999 7.18574 18.9413 5.55101 18.4623 2.9572L15.7398 2.92867C15.2412 4.63827 14.2548 6.28904 12.6594 7.18396C12.0344 7.53514 11.3863 7.61715 10.8236 8.02004ZM23.2877 14.7051H10.8236V19.9641C10.8236 20.2796 11.6053 21.786 11.851 22.1443C14.4204 25.8755 20.1521 25.7311 22.4722 21.8216C22.6395 21.54 23.2877 20.1602 23.2877 19.9641V14.7051ZM18.6582 27.184C18.5282 27.1358 18.4445 27.3622 18.3911 27.3622H15.7202C15.6668 27.3622 15.5831 27.1358 15.4531 27.184V31.3733C15.4531 31.8689 16.6176 32.5053 17.1162 32.4803C17.5702 32.4572 18.6582 31.8368 18.6582 31.3733V27.184ZM3.16716 36.1866C2.9802 37.6947 3.30604 39.5416 3.16716 41.089H15.8092V34.9387C14.0304 34.0865 12.9799 32.7709 12.7645 30.7672C10.8165 30.7672 8.83651 30.5301 6.99005 31.2806C5.14359 32.0311 3.40753 34.2523 3.16538 36.1866H3.16716ZM18.302 34.9387V41.089H30.9441V36.1866C30.9441 35.2685 29.7707 33.2558 29.1012 32.5944C26.9699 30.4926 24.1281 30.6745 21.3468 30.7672C21.1314 32.7709 20.0826 34.0883 18.302 34.9387Z"
			fill="currentColor" />
	</symbol>
	<symbol id="why-we__icon_03" viewBox="0 0 34 28">
		<path
			d="M32.3 17.3999H30.6V5.4999C30.6 4.1473 30.0627 2.85009 29.1062 1.89366C28.1498 0.937222 26.8526 0.399902 25.5 0.399902H8.5C7.1474 0.399902 5.85019 0.937222 4.89376 1.89366C3.93732 2.85009 3.4 4.1473 3.4 5.4999V17.3999H1.7C1.24913 17.3999 0.81673 17.579 0.497918 17.8978C0.179107 18.2166 0 18.649 0 19.0999V22.4999C0 23.8525 0.53732 25.1497 1.49376 26.1061C2.45019 27.0626 3.7474 27.5999 5.1 27.5999H28.9C30.2526 27.5999 31.5498 27.0626 32.5062 26.1061C33.4627 25.1497 34 23.8525 34 22.4999V19.0999C34 18.649 33.8209 18.2166 33.5021 17.8978C33.1833 17.579 32.7509 17.3999 32.3 17.3999ZM6.8 5.4999C6.8 5.04903 6.97911 4.61663 7.29792 4.29782C7.61673 3.97901 8.04913 3.7999 8.5 3.7999H25.5C25.9509 3.7999 26.3833 3.97901 26.7021 4.29782C27.0209 4.61663 27.2 5.04903 27.2 5.4999V17.3999H6.8V5.4999ZM30.6 22.4999C30.6 22.9508 30.4209 23.3832 30.1021 23.702C29.7833 24.0208 29.3509 24.1999 28.9 24.1999H5.1C4.64913 24.1999 4.21673 24.0208 3.89792 23.702C3.57911 23.3832 3.4 22.9508 3.4 22.4999V20.7999H30.6V22.4999Z"
			fill="currentColor" />
	</symbol>
	<symbol id="why-we__icon_04" viewBox="0 0 32 40">
		<path
			d="M30.7831 3.82503C30.558 3.64295 30.295 3.51363 30.0133 3.44657C29.7317 3.37951 29.4386 3.37642 29.1556 3.43753C27.0853 3.87142 24.948 3.87695 22.8755 3.45378C20.8029 3.0306 18.8389 2.18768 17.1044 0.976911C16.78 0.751914 16.3947 0.631348 16 0.631348C15.6053 0.631348 15.22 0.751914 14.8956 0.976911C13.1611 2.18768 11.1971 3.0306 9.12453 3.45378C7.05197 3.87695 4.91473 3.87142 2.84438 3.43753C2.56139 3.37642 2.2683 3.37951 1.98665 3.44657C1.70501 3.51363 1.44198 3.64295 1.21689 3.82503C0.992096 4.00739 0.81102 4.23779 0.686965 4.49931C0.56291 4.76084 0.499027 5.04683 0.500011 5.33628V19.7706C0.498289 22.5485 1.16026 25.2866 2.4308 27.7569C3.70133 30.2272 5.54367 32.3583 7.80438 33.9725L14.8763 39.01C15.2044 39.2436 15.5972 39.3692 16 39.3692C16.4028 39.3692 16.7956 39.2436 17.1237 39.01L24.1956 33.9725C26.4563 32.3583 28.2987 30.2272 29.5692 27.7569C30.8397 25.2866 31.5017 22.5485 31.5 19.7706V5.33628C31.501 5.04683 31.4371 4.76084 31.313 4.49931C31.189 4.23779 31.0079 4.00739 30.7831 3.82503ZM27.625 19.7706C27.6265 21.9305 27.1121 24.0595 26.1247 25.9804C25.1373 27.9013 23.7054 29.5586 21.9481 30.8144L16 35.0575L10.0519 30.8144C8.29464 29.5586 6.86273 27.9013 5.87531 25.9804C4.88789 24.0595 4.37352 21.9305 4.37501 19.7706V7.56441C8.43684 7.91206 12.5048 6.96964 16 4.87128C19.4952 6.96964 23.5632 7.91206 27.625 7.56441V19.7706ZM18.9837 15.3338L13.7719 20.565L12.0475 18.8213C11.6827 18.4564 11.1878 18.2515 10.6719 18.2515C10.1559 18.2515 9.66109 18.4564 9.29625 18.8213C8.93142 19.1861 8.72645 19.6809 8.72645 20.1969C8.72645 20.7129 8.93142 21.2077 9.29625 21.5725L12.3963 24.6725C12.5764 24.8541 12.7907 24.9983 13.0268 25.0966C13.2629 25.195 13.5161 25.2456 13.7719 25.2456C14.0276 25.2456 14.2809 25.195 14.517 25.0966C14.7531 24.9983 14.9674 24.8541 15.1475 24.6725L21.8125 18.0657C22.1773 17.7008 22.3823 17.206 22.3823 16.69C22.3823 16.1741 22.1773 15.6792 21.8125 15.3144C21.4477 14.9496 20.9528 14.7446 20.4369 14.7446C19.9209 14.7446 19.4261 14.9496 19.0612 15.3144L18.9837 15.3338Z"
			fill="currentColor" />
	</symbol>
	<symbol id="soller-arrow" viewBox="0 0 16 11">
		<path d="M14.12 0.453125L8 6.55979L1.88 0.453125L0 2.33312L8 10.3331L16 2.33312L14.12 0.453125Z"
			fill="currentColor" />
	</symbol>

	<symbol id="lang-icon" viewBox="0 0 20 20">
		<path
			d="M17.9671 5.33089C16.3246 2.53246 13.4045 0.859481 10.1802 0.798645C10.0889 0.798645 9.96727 0.798645 9.87601 0.798645C6.65173 0.859481 3.73163 2.56287 2.08907 5.33089C1.26779 6.73011 0.811523 8.37266 0.811523 10.0152C0.811523 11.9924 1.41988 13.8479 2.57575 15.4296C4.30957 17.7717 6.95591 19.171 9.8456 19.2014C9.90643 19.2014 9.93685 19.2014 9.99768 19.2014C10.0585 19.2014 10.0889 19.2014 10.1498 19.2014C13.0699 19.171 15.7162 17.7717 17.4196 15.4296C18.5755 13.8479 19.1838 11.962 19.1838 10.0152C19.2447 8.37266 18.7884 6.76052 17.9671 5.33089ZM16.2942 5.33089C15.1687 5.6959 13.9824 5.96966 12.7961 6.12175C12.4615 4.78337 11.9444 3.50582 11.2752 2.28911C13.3132 2.62371 15.0774 3.68833 16.2942 5.33089ZM9.8456 17.5588C9.29808 16.6159 8.84181 15.6425 8.50721 14.6691C9.38933 14.6083 10.3019 14.6083 11.184 14.6387C10.8494 15.6425 10.3931 16.6159 9.8456 17.5588ZM11.4273 6.24342C10.3627 6.30426 9.26766 6.30426 8.23345 6.213C8.59847 4.90504 9.11557 3.65791 9.81518 2.47162C10.5452 3.68833 11.0927 4.93546 11.4273 6.24342ZM7.92928 7.5818C8.59847 7.64264 9.29808 7.67306 10.0281 7.67306C10.606 7.67306 11.184 7.64264 11.7315 7.61222C11.8532 8.40308 11.9444 9.22436 11.9444 10.0152C11.9444 11.1103 11.8227 12.2053 11.5794 13.2699C10.4539 13.1787 9.26766 13.2091 8.1422 13.3003C7.89886 12.2357 7.74677 11.1407 7.74677 10.0152C7.71635 9.19394 7.80761 8.37266 7.92928 7.5818ZM8.32471 2.38037C7.68594 3.56666 7.19925 4.81379 6.86466 6.09133C5.80003 5.93925 4.76583 5.6959 3.76205 5.36131C4.8875 3.81 6.49964 2.7758 8.32471 2.38037ZM2.21074 10.0152C2.21074 8.79851 2.4845 7.61222 3.03202 6.51718C4.18789 6.91261 5.37419 7.21679 6.5909 7.3993C6.43881 8.25099 6.37797 9.13311 6.37797 10.0152C6.37797 11.1711 6.49964 12.327 6.7734 13.4524C5.64795 13.6349 4.55291 13.8783 3.45787 14.2129C2.63659 12.9657 2.21074 11.5361 2.21074 10.0152ZM4.33998 15.3992C5.25252 15.1254 6.16505 14.9429 7.108 14.7908C7.41218 15.7642 7.83802 16.7375 8.32471 17.6501C6.80382 17.3155 5.4046 16.555 4.33998 15.3992ZM11.3056 17.7413C11.8228 16.768 12.279 15.7642 12.5832 14.7604C13.6478 14.8821 14.7124 15.095 15.7162 15.3992C14.5299 16.6463 13.009 17.4676 11.3056 17.7413ZM16.6288 14.2433C15.4425 13.8479 14.1953 13.6045 12.9482 13.422C13.1915 12.327 13.3132 11.1711 13.3132 10.0152C13.3132 9.16353 13.2524 8.31183 13.1003 7.46013C14.4387 7.27763 15.7771 6.97345 17.0546 6.51718C17.6021 7.5818 17.8759 8.79851 17.8759 10.0152C17.8759 11.5361 17.4196 12.9657 16.6288 14.2433Z"
			fill="currentColor" />

	</symbol>
	<symbol id="autor-icon" viewBox="0 0 18 18">
		<path
			d="M3.87533 13.25C4.58366 12.7083 5.37533 12.2812 6.25033 11.9687C7.12533 11.6562 8.04199 11.5 9.00033 11.5C9.95866 11.5 10.8753 11.6562 11.7503 11.9687C12.6253 12.2812 13.417 12.7083 14.1253 13.25C14.6114 12.6805 14.9899 12.0347 15.2607 11.3125C15.5316 10.5902 15.667 9.8194 15.667 8.99996C15.667 7.15274 15.0177 5.57982 13.7191 4.28121C12.4205 2.9826 10.8475 2.33329 9.00033 2.33329C7.1531 2.33329 5.58019 2.9826 4.28158 4.28121C2.98296 5.57982 2.33366 7.15274 2.33366 8.99996C2.33366 9.8194 2.46908 10.5902 2.73991 11.3125C3.01074 12.0347 3.38921 12.6805 3.87533 13.25ZM9.00033 9.83329C8.18088 9.83329 7.48991 9.55204 6.92741 8.98954C6.36491 8.42704 6.08366 7.73607 6.08366 6.91663C6.08366 6.09718 6.36491 5.40621 6.92741 4.84371C7.48991 4.28121 8.18088 3.99996 9.00033 3.99996C9.81977 3.99996 10.5107 4.28121 11.0732 4.84371C11.6357 5.40621 11.917 6.09718 11.917 6.91663C11.917 7.73607 11.6357 8.42704 11.0732 8.98954C10.5107 9.55204 9.81977 9.83329 9.00033 9.83329ZM9.00033 17.3333C7.84755 17.3333 6.76421 17.1145 5.75033 16.677C4.73644 16.2395 3.85449 15.6458 3.10449 14.8958C2.35449 14.1458 1.76074 13.2638 1.32324 12.25C0.885742 11.2361 0.666992 10.1527 0.666992 8.99996C0.666992 7.84718 0.885742 6.76385 1.32324 5.74996C1.76074 4.73607 2.35449 3.85413 3.10449 3.10413C3.85449 2.35413 4.73644 1.76038 5.75033 1.32288C6.76421 0.885376 7.84755 0.666626 9.00033 0.666626C10.1531 0.666626 11.2364 0.885376 12.2503 1.32288C13.2642 1.76038 14.1462 2.35413 14.8962 3.10413C15.6462 3.85413 16.2399 4.73607 16.6774 5.74996C17.1149 6.76385 17.3337 7.84718 17.3337 8.99996C17.3337 10.1527 17.1149 11.2361 16.6774 12.25C16.2399 13.2638 15.6462 14.1458 14.8962 14.8958C14.1462 15.6458 13.2642 16.2395 12.2503 16.677C11.2364 17.1145 10.1531 17.3333 9.00033 17.3333ZM9.00033 15.6666C9.73644 15.6666 10.4309 15.559 11.0837 15.3437C11.7364 15.1284 12.3337 14.8194 12.8753 14.4166C12.3337 14.0138 11.7364 13.7048 11.0837 13.4895C10.4309 13.2743 9.73644 13.1666 9.00033 13.1666C8.26421 13.1666 7.56977 13.2743 6.91699 13.4895C6.26421 13.7048 5.66699 14.0138 5.12533 14.4166C5.66699 14.8194 6.26421 15.1284 6.91699 15.3437C7.56977 15.559 8.26421 15.6666 9.00033 15.6666ZM9.00033 8.16663C9.36144 8.16663 9.66005 8.04857 9.89616 7.81246C10.1323 7.57635 10.2503 7.27774 10.2503 6.91663C10.2503 6.55551 10.1323 6.2569 9.89616 6.02079C9.66005 5.78468 9.36144 5.66663 9.00033 5.66663C8.63921 5.66663 8.3406 5.78468 8.10449 6.02079C7.86838 6.2569 7.75033 6.55551 7.75033 6.91663C7.75033 7.27774 7.86838 7.57635 8.10449 7.81246C8.3406 8.04857 8.63921 8.16663 9.00033 8.16663Z"
			fill="currentColor" />
	</symbol>
	<symbol id="date-icon" viewBox="0 0 20 20">
		<path
			d="M4.16667 18.3333C3.70833 18.3333 3.31597 18.1701 2.98958 17.8437C2.66319 17.5173 2.5 17.125 2.5 16.6666V4.99996C2.5 4.54163 2.66319 4.14926 2.98958 3.82288C3.31597 3.49649 3.70833 3.33329 4.16667 3.33329H5V1.66663H6.66667V3.33329H13.3333V1.66663H15V3.33329H15.8333C16.2917 3.33329 16.684 3.49649 17.0104 3.82288C17.3368 4.14926 17.5 4.54163 17.5 4.99996V16.6666C17.5 17.125 17.3368 17.5173 17.0104 17.8437C16.684 18.1701 16.2917 18.3333 15.8333 18.3333H4.16667ZM4.16667 16.6666H15.8333V8.33329H4.16667V16.6666ZM4.16667 6.66663H15.8333V4.99996H4.16667V6.66663Z"
			fill="currentColor" />

	</symbol>
	<symbol id="share-icon" viewBox="0 0 24 25">
		<mask id="mask0_184_6850" style="mask-type:luminance" maskUnits="userSpaceOnUse" x="0" y="0" width="24" height="25">
			<path d="M24 0.5H0V24.5H24V0.5Z" fill="white" />
		</mask>
		<g mask="url(#mask0_184_6850)">
			<path
				d="M20.6196 13.5703C20.2396 13.5703 19.9196 13.2803 19.8696 12.9003C19.6296 10.6403 18.4096 8.59035 16.5296 7.29035C16.1896 7.05035 16.1096 6.59035 16.3396 6.25035C16.5796 5.91035 17.0496 5.83035 17.3796 6.06035C19.6196 7.61035 21.0596 10.0503 21.3496 12.7403C21.3896 13.1503 21.0996 13.5203 20.6796 13.5703C20.6696 13.5703 20.6396 13.5703 20.6196 13.5703Z"
				fill="currentColor" />
			<path
				d="M3.48991 13.6193C3.45991 13.6193 3.43991 13.6193 3.40991 13.6193C2.99991 13.5693 2.69991 13.1993 2.73991 12.7893C3.00991 10.0993 4.43991 7.66928 6.64991 6.09928C6.98991 5.85928 7.45991 5.93928 7.69991 6.27928C7.93991 6.61928 7.85991 7.08928 7.51991 7.32928C5.65991 8.63928 4.45991 10.6893 4.22991 12.9493C4.19991 13.3293 3.86991 13.6193 3.48991 13.6193Z"
				fill="currentColor" />
			<path
				d="M12.06 23.11C10.58 23.11 9.16997 22.77 7.84997 22.11C7.47997 21.92 7.32997 21.47 7.51997 21.1C7.70997 20.73 8.15997 20.58 8.52997 20.77C10.69 21.86 13.29 21.88 15.47 20.83C15.84 20.65 16.29 20.81 16.47 21.18C16.65 21.55 16.49 22 16.12 22.18C14.84 22.8 13.48 23.11 12.06 23.11Z"
				fill="currentColor" />
			<path
				d="M12.0593 8.94086C10.1093 8.94086 8.5293 7.36086 8.5293 5.41086C8.5293 3.46086 10.1093 1.88086 12.0593 1.88086C14.0093 1.88086 15.5893 3.46086 15.5893 5.41086C15.5893 7.36086 13.9993 8.94086 12.0593 8.94086ZM12.0593 3.39086C10.9393 3.39086 10.0293 4.30086 10.0293 5.42086C10.0293 6.54086 10.9393 7.45086 12.0593 7.45086C13.1793 7.45086 14.0893 6.54086 14.0893 5.42086C14.0893 4.30086 13.1693 3.39086 12.0593 3.39086Z"
				fill="currentColor" />
			<path
				d="M4.8298 21.1694C2.8798 21.1694 1.2998 19.5894 1.2998 17.6394C1.2998 15.6994 2.8798 14.1094 4.8298 14.1094C6.7798 14.1094 8.35981 15.6894 8.35981 17.6394C8.35981 19.5794 6.7798 21.1694 4.8298 21.1694ZM4.8298 15.6094C3.7098 15.6094 2.7998 16.5194 2.7998 17.6394C2.7998 18.7594 3.7098 19.6694 4.8298 19.6694C5.9498 19.6694 6.85981 18.7594 6.85981 17.6394C6.85981 16.5194 5.9498 15.6094 4.8298 15.6094Z"
				fill="currentColor" />
			<path
				d="M19.1696 21.1694C17.2196 21.1694 15.6396 19.5894 15.6396 17.6394C15.6396 15.6994 17.2196 14.1094 19.1696 14.1094C21.1196 14.1094 22.6996 15.6894 22.6996 17.6394C22.6896 19.5794 21.1096 21.1694 19.1696 21.1694ZM19.1696 15.6094C18.0496 15.6094 17.1396 16.5194 17.1396 17.6394C17.1396 18.7594 18.0496 19.6694 19.1696 19.6694C20.2896 19.6694 21.1996 18.7594 21.1996 17.6394C21.1896 16.5194 20.2896 15.6094 19.1696 15.6094Z"
				fill="currentColor" />
		</g>

	</symbol>
	<symbol id="fav-icon" viewBox="0 0 24 25">
		<mask id="mask0_184_6862" style="mask-type:luminance" maskUnits="userSpaceOnUse" x="0" y="0" width="24" height="25">
			<path d="M24 0.5H0V24.5H24V0.5Z" fill="white" />
		</mask>
		<g mask="url(#mask0_184_6862)">
			<path
				d="M12.89 6.38086H5.10999C3.39999 6.38086 2 7.78084 2 9.49084V20.8509C2 22.3009 3.04 22.9208 4.31 22.2108L8.23999 20.0208C8.65999 19.7908 9.34 19.7908 9.75 20.0208L13.68 22.2108C14.95 22.9208 15.99 22.3009 15.99 20.8509V9.49084C16 7.78084 14.6 6.38086 12.89 6.38086Z"
				stroke="currentColor" stroke-width="1.5" stroke-linecap="round" stroke-linejoin="round" />
			<path
				d="M16 9.49084V20.8509C16 22.3009 14.96 22.9108 13.69 22.2108L9.76001 20.0208C9.34001 19.7908 8.65999 19.7908 8.23999 20.0208L4.31 22.2108C3.04 22.9108 2 22.3009 2 20.8509V9.49084C2 7.78084 3.39999 6.38086 5.10999 6.38086H12.89C14.6 6.38086 16 7.78084 16 9.49084Z"
				stroke="currentColor" stroke-width="1.5" stroke-linecap="round" stroke-linejoin="round" />
			<path
				d="M22 5.60999V16.97C22 18.42 20.96 19.03 19.69 18.33L16 16.27V9.48999C16 7.77999 14.6 6.38 12.89 6.38H8V5.60999C8 3.89999 9.39999 2.5 11.11 2.5H18.89C20.6 2.5 22 3.89999 22 5.60999Z"
				stroke="currentColor" stroke-width="1.5" stroke-linecap="round" stroke-linejoin="round" />
		</g>

	</symbol>
	<symbol id="like-icon" viewBox="0 0 24 25">
		<mask id="mask0_184_6870" style="mask-type:luminance" maskUnits="userSpaceOnUse" x="0" y="0" width="24" height="25">
			<path d="M24 0.5H0V24.5H24V0.5Z" fill="white" />
		</mask>
		<g mask="url(#mask0_184_6870)">
			<path
				d="M12.62 21.3096C12.28 21.4296 11.72 21.4296 11.38 21.3096C8.48 20.3196 2 16.1896 2 9.18961C2 6.09961 4.49 3.59961 7.56 3.59961C9.38 3.59961 10.99 4.47961 12 5.83961C13.01 4.47961 14.63 3.59961 16.44 3.59961C19.51 3.59961 22 6.09961 22 9.18961C22 16.1896 15.52 20.3196 12.62 21.3096Z"
				stroke="currentColor" stroke-width="1.5" stroke-linecap="round" stroke-linejoin="round" />
		</g>
	</symbol>


</svg>