<?xml version="1.0" encoding="UTF-8"?>
<svg xmlns="http://www.w3.org/2000/svg" viewBox="0 0 30 38">
  <path d="M29.8464 12.597C29.7061 12.2746 29.4784 11.9979 29.1889 11.7983C28.8995 11.5987 28.5599 11.4841 28.2087 11.4676H19.5871L21.9778 2.54484C22.054 2.26563 22.0647 1.97262 22.0092 1.68859C21.9537 1.40455 21.8335 1.13714 21.6578 0.907128C21.4825 0.679326 21.2572 0.494715 20.9995 0.367456C20.7417 0.240196 20.4582 0.17367 20.1707 0.172979H6.99367C6.56869 0.158422 6.15129 0.288183 5.80947 0.54113C5.46765 0.794077 5.22155 1.1553 5.11124 1.56598L0.0663162 20.3903C-0.00982413 20.6695 -0.0205611 20.9625 0.0349401 21.2466C0.0904413 21.5306 0.210685 21.798 0.386329 22.028C0.563627 22.2584 0.791854 22.4445 1.05313 22.5719C1.3144 22.6992 1.60162 22.7644 1.89228 22.7622H9.17729L5.77009 35.4498C5.65845 35.8589 5.68824 36.2937 5.85461 36.6838C6.02099 37.0739 6.31421 37.3964 6.68676 37.599C7.0593 37.8016 7.48935 37.8725 7.90722 37.8001C8.32509 37.7278 8.70629 37.5165 8.98905 37.2004L29.5076 14.6112C29.7519 14.3437 29.9138 14.0114 29.9739 13.6541C30.034 13.2968 29.9897 12.9298 29.8464 12.597ZM11.4174 28.9366L13.4316 21.4068C13.5077 21.1276 13.5185 20.8346 13.463 20.5506C13.4075 20.2665 13.2872 19.9991 13.1116 19.7691C12.9362 19.5413 12.711 19.3567 12.4532 19.2294C12.1954 19.1022 11.9119 19.0356 11.6245 19.035H4.39591L8.42432 3.93784H17.7047L15.314 12.8606C15.2373 13.1449 15.2283 13.4433 15.2879 13.7318C15.3474 14.0202 15.4738 14.2907 15.6569 14.5214C15.84 14.7521 16.0747 14.9366 16.3421 15.0601C16.6095 15.1836 16.9021 15.2426 17.1965 15.2324H23.9167L11.4174 28.9366Z" fill="currentColor" />
</svg> 