<?xml version="1.0" encoding="UTF-8"?>
<svg xmlns="http://www.w3.org/2000/svg" viewBox="0 0 34 28">
  <path d="M32.3 17.3999H30.6V5.4999C30.6 4.1473 30.0627 2.85009 29.1062 1.89366C28.1498 0.937222 26.8526 0.399902 25.5 0.399902H8.5C7.1474 0.399902 5.85019 0.937222 4.89376 1.89366C3.93732 2.85009 3.4 4.1473 3.4 5.4999V17.3999H1.7C1.24913 17.3999 0.81673 17.579 0.497918 17.8978C0.179107 18.2166 0 18.649 0 19.0999V22.4999C0 23.8525 0.53732 25.1497 1.49376 26.1061C2.45019 27.0626 3.7474 27.5999 5.1 27.5999H28.9C30.2526 27.5999 31.5498 27.0626 32.5062 26.1061C33.4627 25.1497 34 23.8525 34 22.4999V19.0999C34 18.649 33.8209 18.2166 33.5021 17.8978C33.1833 17.579 32.7509 17.3999 32.3 17.3999ZM6.8 5.4999C6.8 5.04903 6.97911 4.61663 7.29792 4.29782C7.61673 3.97901 8.04913 3.7999 8.5 3.7999H25.5C25.9509 3.7999 26.3833 3.97901 26.7021 4.29782C27.0209 4.61663 27.2 5.04903 27.2 5.4999V17.3999H6.8V5.4999ZM30.6 22.4999C30.6 22.9508 30.4209 23.3832 30.1021 23.702C29.7833 24.0208 29.3509 24.1999 28.9 24.1999H5.1C4.64913 24.1999 4.21673 24.0208 3.89792 23.702C3.57911 23.3832 3.4 22.9508 3.4 22.4999V20.7999H30.6V22.4999Z" fill="currentColor" />
</svg> 