<?xml version="1.0" encoding="UTF-8"?>
<svg xmlns="http://www.w3.org/2000/svg" viewBox="0 0 32 40">
  <path d="M30.7831 3.82503C30.558 3.64295 30.295 3.51363 30.0133 3.44657C29.7317 3.37951 29.4386 3.37642 29.1556 3.43753C27.0853 3.87142 24.948 3.87695 22.8755 3.45378C20.8029 3.0306 18.8389 2.18768 17.1044 0.976911C16.78 0.751914 16.3947 0.631348 16 0.631348C15.6053 0.631348 15.22 0.751914 14.8956 0.976911C13.1611 2.18768 11.1971 3.0306 9.12453 3.45378C7.05197 3.87695 4.91473 3.87142 2.84438 3.43753C2.56139 3.37642 2.2683 3.37951 1.98665 3.44657C1.70501 3.51363 1.44198 3.64295 1.21689 3.82503C0.992096 4.00739 0.81102 4.23779 0.686965 4.49931C0.56291 4.76084 0.499027 5.04683 0.500011 5.33628V19.7706C0.498289 22.5485 1.16026 25.2866 2.4308 27.7569C3.70133 30.2272 5.54367 32.3583 7.80438 33.9725L14.8763 39.01C15.2044 39.2436 15.5972 39.3692 16 39.3692C16.4028 39.3692 16.7956 39.2436 17.1237 39.01L24.1956 33.9725C26.4563 32.3583 28.2987 30.2272 29.5692 27.7569C30.8397 25.2866 31.5017 22.5485 31.5 19.7706V5.33628C31.501 5.04683 31.4371 4.76084 31.313 4.49931C31.189 4.23779 31.0079 4.00739 30.7831 3.82503ZM27.625 19.7706C27.6265 21.9305 27.1121 24.0595 26.1247 25.9804C25.1373 27.9013 23.7054 29.5586 21.9481 30.8144L16 35.0575L10.0519 30.8144C8.29464 29.5586 6.86273 27.9013 5.87531 25.9804C4.88789 24.0595 4.37352 21.9305 4.37501 19.7706V7.56441C8.43684 7.91206 12.5048 6.96964 16 4.87128C19.4952 6.96964 23.5632 7.91206 27.625 7.56441V19.7706ZM18.9837 15.3338L13.7719 20.565L12.0475 18.8213C11.6827 18.4564 11.1878 18.2515 10.6719 18.2515C10.1559 18.2515 9.66109 18.4564 9.29625 18.8213C8.93142 19.1861 8.72645 19.6809 8.72645 20.1969C8.72645 20.7129 8.93142 21.2077 9.29625 21.5725L12.3963 24.6725C12.5764 24.8541 12.7907 24.9983 13.0268 25.0966C13.2629 25.195 13.5161 25.2456 13.7719 25.2456C14.0276 25.2456 14.2809 25.195 14.517 25.0966C14.7531 24.9983 14.9674 24.8541 15.1475 24.6725L21.8125 18.0657C22.1773 17.7008 22.3823 17.206 22.3823 16.69C22.3823 16.1741 22.1773 15.6792 21.8125 15.3144C21.4477 14.9496 20.9528 14.7446 20.4369 14.7446C19.9209 14.7446 19.4261 14.9496 19.0612 15.3144L18.9837 15.3338Z" fill="currentColor" />
</svg> 