<?xml version="1.0" encoding="UTF-8"?>
<svg xmlns="http://www.w3.org/2000/svg" viewBox="0 0 34 44">
  <path d="M8.15277 6.59388C8.37178 5.346 9.73214 5.55814 10.6135 5.31391C11.7317 5.00372 12.5953 4.13199 12.9924 3.06059C13.3289 2.15498 13.1241 0.721701 14.1604 0.489952C14.8157 0.343771 19.7408 0.35625 20.2162 0.573738C20.8714 0.875013 20.907 3.1426 21.7688 4.18903C23.058 5.75424 24.6035 5.0786 25.4742 5.78098C25.5757 5.86298 25.9567 6.54575 25.9567 6.5921V12.2076H30.8533C31.2735 12.2076 31.8255 13.1061 31.8131 13.5499C31.8042 13.8548 31.2059 14.7033 31.0314 14.7033H25.9567V19.0709C25.9567 21.3867 24.2972 23.8842 22.6662 25.4031C21.516 26.4745 21.037 26.0912 21.3272 28.2518H25.8677C29.3541 28.2518 33.1004 32.6746 33.4334 36.0083C33.5206 36.8836 33.5509 42.3654 33.3426 42.8663C33.2001 43.2104 32.5288 43.6952 32.1104 43.5936L1.38836 43.4902C0.868433 43.0927 0.724206 42.9019 0.661886 42.2566C0.138397 36.9638 0.615591 31.0898 6.19591 28.8793C6.5734 28.7296 7.94444 28.2518 8.24002 28.2518H12.7805L12.752 26.4085C10.959 25.0786 9.38136 23.5972 8.67982 21.3938C8.52135 20.8964 8.15099 19.5095 8.15099 19.0709V14.7033H3.07813C2.90185 14.7033 2.30358 13.853 2.29645 13.5499C2.28399 13.1061 2.83597 12.2076 3.25618 12.2076H8.15277C8.36109 10.5265 7.87322 8.18583 8.15277 6.5921V6.59388ZM10.8236 8.02004V12.2094H23.2877V8.02004C20.8999 7.18574 18.9413 5.55101 18.4623 2.9572L15.7398 2.92867C15.2412 4.63827 14.2548 6.28904 12.6594 7.18396C12.0344 7.53514 11.3863 7.61715 10.8236 8.02004ZM23.2877 14.7051H10.8236V19.9641C10.8236 20.2796 11.6053 21.786 11.851 22.1443C14.4204 25.8755 20.1521 25.7311 22.4722 21.8216C22.6395 21.54 23.2877 20.1602 23.2877 19.9641V14.7051ZM18.6582 27.184C18.5282 27.1358 18.4445 27.3622 18.3911 27.3622H15.7202C15.6668 27.3622 15.5831 27.1358 15.4531 27.184V31.3733C15.4531 31.8689 16.6176 32.5053 17.1162 32.4803C17.5702 32.4572 18.6582 31.8368 18.6582 31.3733V27.184ZM3.16716 36.1866C2.9802 37.6947 3.30604 39.5416 3.16716 41.089H15.8092V34.9387C14.0304 34.0865 12.9799 32.7709 12.7645 30.7672C10.8165 30.7672 8.83651 30.5301 6.99005 31.2806C5.14359 32.0311 3.40753 34.2523 3.16538 36.1866H3.16716ZM18.302 34.9387V41.089H30.9441V36.1866C30.9441 35.2685 29.7707 33.2558 29.1012 32.5944C26.9699 30.4926 24.1281 30.6745 21.3468 30.7672C21.1314 32.7709 20.0826 34.0883 18.302 34.9387Z" fill="currentColor" />
</svg> 