<svg width="213" height="45" viewBox="0 0 213 45" fill="none" xmlns="http://www.w3.org/2000/svg">
<path d="M19.9839 45L20.4919 35.3635C20.4993 35.205 20.4707 35.047 20.4081 34.9009C20.3455 34.7548 20.2506 34.6245 20.1304 34.5195C20.0101 34.4145 19.8676 34.3375 19.7133 34.2942C19.559 34.2509 19.3968 34.2423 19.2387 34.2692L9.54032 35.9553L10.85 32.3821C10.9031 32.24 10.9099 32.0849 10.8694 31.9387C10.8289 31.7925 10.7432 31.6625 10.6242 31.567L0 23.0583L2.39355 21.9529C2.5552 21.8773 2.68341 21.746 2.75409 21.5836C2.82478 21.4211 2.83307 21.2388 2.77742 21.0707L0.677419 14.6836L6.79677 15.9677C6.96256 16.0019 7.1352 15.9784 7.28542 15.901C7.43564 15.8237 7.55419 15.6973 7.62097 15.5434L8.80645 12.7854L13.5823 17.8548C13.6915 17.9688 13.8351 18.0446 13.9915 18.071C14.148 18.0973 14.3089 18.0728 14.4501 18.0011C14.5913 17.9294 14.7051 17.8144 14.7746 17.6732C14.8441 17.5321 14.8655 17.3725 14.8355 17.2184L12.5323 5.47146L16.2242 7.58189C16.3109 7.63213 16.4071 7.66424 16.5068 7.67622C16.6065 7.68819 16.7077 7.67979 16.804 7.65153C16.9003 7.62326 16.9898 7.57574 17.0668 7.5119C17.1437 7.44806 17.2067 7.36927 17.2516 7.2804L21 0L24.7484 7.2804C24.7933 7.36927 24.8563 7.44806 24.9332 7.5119C25.0102 7.57574 25.0997 7.62326 25.196 7.65153C25.2923 7.67979 25.3935 7.68819 25.4932 7.67622C25.5929 7.66424 25.6891 7.63213 25.7758 7.58189L29.4677 5.47146L27.1645 17.2184C27.1345 17.3725 27.1559 17.5321 27.2254 17.6732C27.2949 17.8144 27.4087 17.9294 27.5499 18.0011C27.6911 18.0728 27.852 18.0973 28.0085 18.071C28.1649 18.0446 28.3085 17.9688 28.4177 17.8548L33.1936 12.7854L34.379 15.5434C34.4458 15.6973 34.5644 15.8237 34.7146 15.901C34.8648 15.9784 35.0374 16.0019 35.2032 15.9677L41.3226 14.6836L39.2226 21.0707C39.1669 21.2388 39.1752 21.4211 39.2459 21.5836C39.3166 21.746 39.4448 21.8773 39.6065 21.9529L42 23.0583L31.3758 31.567C31.2568 31.6625 31.1711 31.7925 31.1306 31.9387C31.0901 32.0849 31.0969 32.24 31.15 32.3821L32.4597 35.9553L22.7613 34.2692C22.6032 34.2423 22.441 34.2509 22.2867 34.2942C22.1324 34.3375 21.9899 34.4145 21.8696 34.5195C21.7494 34.6245 21.6545 34.7548 21.5919 34.9009C21.5293 35.047 21.5007 35.205 21.5081 35.3635L22.0161 45H19.9839Z" fill="#AC000A"/>
<path d="M58.2797 33.5C56.4785 33.5 54.9678 33.236 53.7477 32.708C52.5469 32.1604 51.6269 31.4564 50.9878 30.596C50.368 29.716 50.0387 28.7969 50 27.8387C50 27.6627 50.0581 27.516 50.1743 27.3987C50.2905 27.2813 50.4358 27.2227 50.6101 27.2227H53.1957C53.4475 27.2227 53.6315 27.2813 53.7477 27.3987C53.8832 27.4964 53.9994 27.6236 54.0963 27.78C54.2125 28.1516 54.4352 28.5231 54.7645 28.8947C55.0937 29.2467 55.5392 29.54 56.1008 29.7747C56.6819 30.0093 57.4082 30.1267 58.2797 30.1267C59.6742 30.1267 60.7104 29.892 61.3883 29.4227C62.0855 28.9533 62.4341 28.3178 62.4341 27.516C62.4341 26.9489 62.2501 26.4991 61.8821 26.1667C61.5141 25.8147 60.9428 25.5018 60.1681 25.228C59.4127 24.9347 58.4056 24.6316 57.1467 24.3187C55.6941 23.9667 54.474 23.5462 53.4862 23.0573C52.5178 22.5489 51.7818 21.9133 51.2783 21.1507C50.7941 20.388 50.552 19.42 50.552 18.2467C50.552 17.1124 50.8522 16.1053 51.4526 15.2253C52.0724 14.3453 52.9439 13.6511 54.0672 13.1427C55.2099 12.6342 56.5657 12.38 58.1345 12.38C59.3934 12.38 60.507 12.556 61.4754 12.908C62.4438 13.2404 63.2476 13.6902 63.8867 14.2573C64.5258 14.8049 65.01 15.4013 65.3393 16.0467C65.6879 16.6724 65.8719 17.2884 65.8913 17.8947C65.8913 18.0511 65.8332 18.1978 65.7169 18.3347C65.6201 18.452 65.4749 18.5107 65.2812 18.5107H62.5794C62.4244 18.5107 62.2695 18.4716 62.1145 18.3933C61.9596 18.3151 61.8337 18.1684 61.7369 17.9533C61.6207 17.3471 61.243 16.8289 60.6039 16.3987C59.9647 15.9684 59.1416 15.7533 58.1345 15.7533C57.0886 15.7533 56.2461 15.9489 55.607 16.34C54.9678 16.7311 54.6483 17.3373 54.6483 18.1587C54.6483 18.7062 54.8032 19.1658 55.1131 19.5373C55.4423 19.8893 55.9556 20.2022 56.6528 20.476C57.3694 20.7498 58.3088 21.0431 59.4708 21.356C61.1171 21.7276 62.4632 22.1578 63.509 22.6467C64.5549 23.1356 65.3199 23.7613 65.8041 24.524C66.2883 25.2671 66.5304 26.2156 66.5304 27.3693C66.5304 28.66 66.1818 29.7649 65.4845 30.684C64.8067 31.5836 63.848 32.2778 62.6084 32.7667C61.3689 33.2556 59.926 33.5 58.2797 33.5Z" fill="white"/>
<path d="M76.0187 33.5C73.8689 33.5 72.1645 32.8742 70.9056 31.6227C69.6467 30.3711 68.9688 28.5916 68.872 26.284C68.8526 26.0884 68.843 25.844 68.843 25.5507C68.843 25.2378 68.8526 24.9933 68.872 24.8173C68.9495 23.3507 69.2787 22.0796 69.8598 21.004C70.4602 19.9284 71.2833 19.1071 72.3291 18.54C73.375 17.9533 74.6049 17.66 76.0187 17.66C77.5875 17.66 78.9045 17.9924 79.9697 18.6573C81.035 19.3027 81.8387 20.212 82.381 21.3853C82.9233 22.5391 83.1945 23.8787 83.1945 25.404V26.02C83.1945 26.2156 83.1267 26.3818 82.9911 26.5187C82.8555 26.6556 82.6812 26.724 82.4682 26.724H72.823C72.823 26.724 72.823 26.7533 72.823 26.812C72.823 26.8707 72.823 26.9196 72.823 26.9587C72.8424 27.6431 72.9683 28.2787 73.2007 28.8653C73.4525 29.4324 73.8108 29.892 74.2756 30.244C74.7598 30.596 75.3312 30.772 75.9897 30.772C76.532 30.772 76.9871 30.6938 77.3551 30.5373C77.7231 30.3613 78.0233 30.1658 78.2557 29.9507C78.4881 29.7356 78.6527 29.5596 78.7496 29.4227C78.9239 29.188 79.0595 29.0511 79.1563 29.012C79.2725 28.9533 79.4371 28.924 79.6502 28.924H82.1486C82.3423 28.924 82.4972 28.9827 82.6134 29.1C82.749 29.2173 82.8071 29.364 82.7877 29.54C82.7684 29.8529 82.6038 30.2342 82.2939 30.684C82.0034 31.1338 81.5773 31.5738 81.0156 32.004C80.4539 32.4342 79.747 32.796 78.8948 33.0893C78.062 33.3631 77.1033 33.5 76.0187 33.5ZM72.823 24.26H79.2434V24.172C79.2434 23.4093 79.1176 22.7444 78.8658 22.1773C78.614 21.6102 78.246 21.1604 77.7618 20.828C77.2776 20.4956 76.6966 20.3293 76.0187 20.3293C75.3408 20.3293 74.7598 20.4956 74.2756 20.828C73.7914 21.1604 73.4234 21.6102 73.1716 22.1773C72.9392 22.7444 72.823 23.4093 72.823 24.172V24.26Z" fill="white"/>
<path d="M87.0046 33.2067C86.8109 33.2067 86.6462 33.1382 86.5107 33.0013C86.3751 32.8644 86.3073 32.6982 86.3073 32.5027V13.084C86.3073 12.8884 86.3751 12.7222 86.5107 12.5853C86.6462 12.4484 86.8109 12.38 87.0046 12.38H89.4158C89.6095 12.38 89.7741 12.4484 89.9097 12.5853C90.0453 12.7222 90.1131 12.8884 90.1131 13.084V32.5027C90.1131 32.6982 90.0453 32.8644 89.9097 33.0013C89.7741 33.1382 89.6095 33.2067 89.4158 33.2067H87.0046Z" fill="white"/>
<path d="M96.2909 33.2067C96.0972 33.2067 95.9326 33.1382 95.797 33.0013C95.6614 32.8644 95.5936 32.6982 95.5936 32.5027V21.0627H93.2404C93.0468 21.0627 92.8821 20.9942 92.7466 20.8573C92.611 20.7204 92.5432 20.5542 92.5432 20.3587V18.6573C92.5432 18.4618 92.611 18.2956 92.7466 18.1587C92.8821 18.0218 93.0468 17.9533 93.2404 17.9533H95.5936V16.7507C95.5936 15.5773 95.8067 14.6093 96.2328 13.8467C96.6589 13.0644 97.2883 12.4778 98.1211 12.0867C98.9539 11.6956 100.009 11.5 101.288 11.5H103.263C103.476 11.5 103.641 11.5684 103.757 11.7053C103.893 11.8422 103.961 12.0084 103.961 12.204V13.9053C103.961 14.1009 103.893 14.2671 103.757 14.404C103.641 14.5409 103.476 14.6093 103.263 14.6093H101.404C100.629 14.6093 100.097 14.8049 99.8061 15.196C99.5156 15.5871 99.3703 16.1542 99.3703 16.8973V17.9533H102.973C103.186 17.9533 103.35 18.0218 103.467 18.1587C103.602 18.2956 103.67 18.4618 103.67 18.6573V20.3587C103.67 20.5542 103.602 20.7204 103.467 20.8573C103.35 20.9942 103.186 21.0627 102.973 21.0627H99.3703V32.5027C99.3703 32.6982 99.3026 32.8644 99.167 33.0013C99.0314 33.1382 98.8668 33.2067 98.6731 33.2067H96.2909Z" fill="white"/>
<path d="M113.404 33.5C111.603 33.5 110.092 33.236 108.872 32.708C107.671 32.1604 106.751 31.4564 106.112 30.596C105.492 29.716 105.163 28.7969 105.124 27.8387C105.124 27.6627 105.182 27.516 105.299 27.3987C105.415 27.2813 105.56 27.2227 105.734 27.2227H108.32C108.572 27.2227 108.756 27.2813 108.872 27.3987C109.008 27.4964 109.124 27.6236 109.221 27.78C109.337 28.1516 109.56 28.5231 109.889 28.8947C110.218 29.2467 110.664 29.54 111.225 29.7747C111.806 30.0093 112.533 30.1267 113.404 30.1267C114.799 30.1267 115.835 29.892 116.513 29.4227C117.21 28.9533 117.558 28.3178 117.558 27.516C117.558 26.9489 117.375 26.4991 117.007 26.1667C116.639 25.8147 116.067 25.5018 115.292 25.228C114.537 24.9347 113.53 24.6316 112.271 24.3187C110.819 23.9667 109.598 23.5462 108.611 23.0573C107.642 22.5489 106.906 21.9133 106.403 21.1507C105.918 20.388 105.676 19.42 105.676 18.2467C105.676 17.1124 105.977 16.1053 106.577 15.2253C107.197 14.3453 108.068 13.6511 109.192 13.1427C110.334 12.6342 111.69 12.38 113.259 12.38C114.518 12.38 115.631 12.556 116.6 12.908C117.568 13.2404 118.372 13.6902 119.011 14.2573C119.65 14.8049 120.134 15.4013 120.464 16.0467C120.812 16.6724 120.996 17.2884 121.016 17.8947C121.016 18.0511 120.958 18.1978 120.841 18.3347C120.744 18.452 120.599 18.5107 120.406 18.5107H117.704C117.549 18.5107 117.394 18.4716 117.239 18.3933C117.084 18.3151 116.958 18.1684 116.861 17.9533C116.745 17.3471 116.367 16.8289 115.728 16.3987C115.089 15.9684 114.266 15.7533 113.259 15.7533C112.213 15.7533 111.37 15.9489 110.731 16.34C110.092 16.7311 109.773 17.3373 109.773 18.1587C109.773 18.7062 109.928 19.1658 110.237 19.5373C110.567 19.8893 111.08 20.2022 111.777 20.476C112.494 20.7498 113.433 21.0431 114.595 21.356C116.241 21.7276 117.588 22.1578 118.633 22.6467C119.679 23.1356 120.444 23.7613 120.928 24.524C121.413 25.2671 121.655 26.2156 121.655 27.3693C121.655 28.66 121.306 29.7649 120.609 30.684C119.931 31.5836 118.972 32.2778 117.733 32.7667C116.493 33.2556 115.05 33.5 113.404 33.5Z" fill="white"/>
<path d="M131.172 33.5C129.778 33.5 128.548 33.236 127.483 32.708C126.437 32.18 125.614 31.4173 125.013 30.42C124.432 29.4031 124.113 28.1809 124.054 26.7533C124.035 26.46 124.025 26.0787 124.025 25.6093C124.025 25.1204 124.035 24.7196 124.054 24.4067C124.113 22.9791 124.432 21.7667 125.013 20.7693C125.614 19.7524 126.437 18.98 127.483 18.452C128.548 17.924 129.778 17.66 131.172 17.66C132.412 17.66 133.467 17.836 134.339 18.188C135.21 18.54 135.927 18.98 136.489 19.508C137.05 20.036 137.467 20.5933 137.738 21.18C138.028 21.7471 138.183 22.2653 138.203 22.7347C138.222 22.9498 138.154 23.1258 137.999 23.2627C137.864 23.38 137.699 23.4387 137.505 23.4387H134.949C134.755 23.4387 134.6 23.3898 134.484 23.292C134.387 23.1942 134.29 23.0476 134.194 22.852C133.903 22.0698 133.516 21.5222 133.031 21.2093C132.567 20.8769 131.966 20.7107 131.23 20.7107C130.262 20.7107 129.487 21.0236 128.906 21.6493C128.344 22.2556 128.044 23.2236 128.006 24.5533C127.967 25.2964 127.967 25.9809 128.006 26.6067C128.044 27.956 128.344 28.9338 128.906 29.54C129.487 30.1462 130.262 30.4493 131.23 30.4493C131.986 30.4493 132.596 30.2929 133.061 29.98C133.525 29.6476 133.903 29.0902 134.194 28.308C134.29 28.1124 134.387 27.9658 134.484 27.868C134.6 27.7702 134.755 27.7213 134.949 27.7213H137.505C137.699 27.7213 137.864 27.7898 137.999 27.9267C138.154 28.044 138.222 28.2102 138.203 28.4253C138.183 28.7773 138.086 29.1782 137.912 29.628C137.757 30.0582 137.496 30.508 137.128 30.9773C136.779 31.4271 136.334 31.8476 135.791 32.2387C135.249 32.6102 134.591 32.9133 133.816 33.148C133.061 33.3827 132.179 33.5 131.172 33.5Z" fill="white"/>
<path d="M145.619 33.5C144.612 33.5 143.702 33.3044 142.888 32.9133C142.075 32.5027 141.426 31.9649 140.942 31.3C140.477 30.6156 140.245 29.8529 140.245 29.012C140.245 27.6431 140.787 26.5578 141.872 25.756C142.976 24.9347 144.428 24.3871 146.229 24.1133L150.209 23.5267V22.9107C150.209 22.0893 150.006 21.4538 149.599 21.004C149.193 20.5542 148.495 20.3293 147.508 20.3293C146.81 20.3293 146.239 20.476 145.794 20.7693C145.367 21.0431 145.048 21.4147 144.835 21.884C144.68 22.1382 144.457 22.2653 144.167 22.2653H141.872C141.659 22.2653 141.494 22.2067 141.378 22.0893C141.281 21.972 141.232 21.8156 141.232 21.62C141.252 21.3071 141.378 20.9258 141.61 20.476C141.842 20.0262 142.21 19.596 142.714 19.1853C143.218 18.7551 143.866 18.3933 144.661 18.1C145.455 17.8067 146.413 17.66 147.537 17.66C148.757 17.66 149.783 17.8164 150.616 18.1293C151.468 18.4227 152.146 18.8236 152.65 19.332C153.153 19.8404 153.521 20.4369 153.754 21.1213C153.986 21.8058 154.102 22.5293 154.102 23.292V32.5027C154.102 32.6982 154.035 32.8644 153.899 33.0013C153.763 33.1382 153.599 33.2067 153.405 33.2067H151.052C150.839 33.2067 150.665 33.1382 150.529 33.0013C150.413 32.8644 150.355 32.6982 150.355 32.5027V31.3587C150.103 31.7302 149.764 32.0822 149.338 32.4147C148.912 32.7276 148.389 32.9916 147.769 33.2067C147.169 33.4022 146.452 33.5 145.619 33.5ZM146.607 30.7133C147.285 30.7133 147.895 30.5667 148.437 30.2733C148.999 29.98 149.435 29.5302 149.745 28.924C150.074 28.2982 150.238 27.516 150.238 26.5773V25.9613L147.333 26.4307C146.191 26.6067 145.338 26.8902 144.777 27.2813C144.215 27.6724 143.934 28.1516 143.934 28.7187C143.934 29.1489 144.06 29.5204 144.312 29.8333C144.583 30.1267 144.922 30.3516 145.329 30.508C145.735 30.6449 146.162 30.7133 146.607 30.7133Z" fill="white"/>
<path d="M158.527 33.2067C158.333 33.2067 158.168 33.1382 158.033 33.0013C157.897 32.8644 157.829 32.6982 157.829 32.5027V18.6573C157.829 18.4618 157.897 18.2956 158.033 18.1587C158.168 18.0218 158.333 17.9533 158.527 17.9533H160.909C161.102 17.9533 161.267 18.0218 161.403 18.1587C161.538 18.2956 161.606 18.4618 161.606 18.6573V19.86C162.11 19.2342 162.749 18.716 163.523 18.3053C164.318 17.8751 165.296 17.66 166.458 17.66C167.639 17.66 168.666 17.9338 169.537 18.4813C170.409 19.0093 171.077 19.7622 171.542 20.74C172.026 21.7178 172.268 22.8911 172.268 24.26V32.5027C172.268 32.6982 172.2 32.8644 172.065 33.0013C171.929 33.1382 171.764 33.2067 171.571 33.2067H169.014C168.821 33.2067 168.656 33.1382 168.52 33.0013C168.385 32.8644 168.317 32.6982 168.317 32.5027V24.436C168.317 23.3018 168.036 22.412 167.474 21.7667C166.932 21.1213 166.138 20.7987 165.092 20.7987C164.085 20.7987 163.281 21.1213 162.681 21.7667C162.081 22.412 161.78 23.3018 161.78 24.436V32.5027C161.78 32.6982 161.713 32.8644 161.577 33.0013C161.441 33.1382 161.277 33.2067 161.083 33.2067H158.527Z" fill="white"/>
<path d="M176.481 33.2067C176.287 33.2067 176.123 33.1382 175.987 33.0013C175.852 32.8644 175.784 32.6982 175.784 32.5027V29.5987C175.784 29.3836 175.852 29.2076 175.987 29.0707C176.123 28.9338 176.287 28.8653 176.481 28.8653H179.386C179.58 28.8653 179.745 28.9338 179.88 29.0707C180.016 29.2076 180.084 29.3836 180.084 29.5987V32.5027C180.084 32.6982 180.016 32.8644 179.88 33.0013C179.745 33.1382 179.58 33.2067 179.386 33.2067H176.481Z" fill="white"/>
<path d="M190.07 33.5C188.675 33.5 187.446 33.236 186.38 32.708C185.334 32.18 184.511 31.4173 183.911 30.42C183.33 29.4031 183.01 28.1809 182.952 26.7533C182.933 26.46 182.923 26.0787 182.923 25.6093C182.923 25.1204 182.933 24.7196 182.952 24.4067C183.01 22.9791 183.33 21.7667 183.911 20.7693C184.511 19.7524 185.334 18.98 186.38 18.452C187.446 17.924 188.675 17.66 190.07 17.66C191.309 17.66 192.365 17.836 193.236 18.188C194.108 18.54 194.825 18.98 195.386 19.508C195.948 20.036 196.364 20.5933 196.636 21.18C196.926 21.7471 197.081 22.2653 197.1 22.7347C197.12 22.9498 197.052 23.1258 196.897 23.2627C196.761 23.38 196.597 23.4387 196.403 23.4387H193.847C193.653 23.4387 193.498 23.3898 193.382 23.292C193.285 23.1942 193.188 23.0476 193.091 22.852C192.801 22.0698 192.413 21.5222 191.929 21.2093C191.464 20.8769 190.864 20.7107 190.128 20.7107C189.16 20.7107 188.385 21.0236 187.804 21.6493C187.242 22.2556 186.942 23.2236 186.903 24.5533C186.864 25.2964 186.864 25.9809 186.903 26.6067C186.942 27.956 187.242 28.9338 187.804 29.54C188.385 30.1462 189.16 30.4493 190.128 30.4493C190.883 30.4493 191.493 30.2929 191.958 29.98C192.423 29.6476 192.801 29.0902 193.091 28.308C193.188 28.1124 193.285 27.9658 193.382 27.868C193.498 27.7702 193.653 27.7213 193.847 27.7213H196.403C196.597 27.7213 196.761 27.7898 196.897 27.9267C197.052 28.044 197.12 28.2102 197.1 28.4253C197.081 28.7773 196.984 29.1782 196.81 29.628C196.655 30.0582 196.393 30.508 196.025 30.9773C195.677 31.4271 195.231 31.8476 194.689 32.2387C194.147 32.6102 193.488 32.9133 192.714 33.148C191.958 33.3827 191.077 33.5 190.07 33.5Z" fill="white"/>
<path d="M204.517 33.5C203.51 33.5 202.6 33.3044 201.786 32.9133C200.973 32.5027 200.324 31.9649 199.84 31.3C199.375 30.6156 199.142 29.8529 199.142 29.012C199.142 27.6431 199.685 26.5578 200.769 25.756C201.873 24.9347 203.326 24.3871 205.127 24.1133L209.107 23.5267V22.9107C209.107 22.0893 208.904 21.4538 208.497 21.004C208.09 20.5542 207.393 20.3293 206.405 20.3293C205.708 20.3293 205.137 20.476 204.691 20.7693C204.265 21.0431 203.946 21.4147 203.733 21.884C203.578 22.1382 203.355 22.2653 203.064 22.2653H200.769C200.556 22.2653 200.392 22.2067 200.275 22.0893C200.179 21.972 200.13 21.8156 200.13 21.62C200.149 21.3071 200.275 20.9258 200.508 20.476C200.74 20.0262 201.108 19.596 201.612 19.1853C202.115 18.7551 202.764 18.3933 203.558 18.1C204.352 17.8067 205.311 17.66 206.434 17.66C207.654 17.66 208.681 17.8164 209.514 18.1293C210.366 18.4227 211.044 18.8236 211.547 19.332C212.051 19.8404 212.419 20.4369 212.651 21.1213C212.884 21.8058 213 22.5293 213 23.292V32.5027C213 32.6982 212.932 32.8644 212.797 33.0013C212.661 33.1382 212.496 33.2067 212.303 33.2067H209.95C209.737 33.2067 209.562 33.1382 209.427 33.0013C209.31 32.8644 209.252 32.6982 209.252 32.5027V31.3587C209.001 31.7302 208.662 32.0822 208.236 32.4147C207.809 32.7276 207.287 32.9916 206.667 33.2067C206.066 33.4022 205.35 33.5 204.517 33.5ZM205.505 30.7133C206.183 30.7133 206.793 30.5667 207.335 30.2733C207.897 29.98 208.332 29.5302 208.642 28.924C208.971 28.2982 209.136 27.516 209.136 26.5773V25.9613L206.231 26.4307C205.088 26.6067 204.236 26.8902 203.674 27.2813C203.113 27.6724 202.832 28.1516 202.832 28.7187C202.832 29.1489 202.958 29.5204 203.21 29.8333C203.481 30.1267 203.82 30.3516 204.226 30.508C204.633 30.6449 205.059 30.7133 205.505 30.7133Z" fill="white"/>
</svg>
