<svg width="143" height="27" viewBox="0 0 143 27" fill="none" xmlns="http://www.w3.org/2000/svg">
<path d="M13.5 0L16.5309 9.32827H26.3393L18.4042 15.0935L21.4351 24.4217L13.5 18.6565L5.5649 24.4217L8.59584 15.0935L0.660737 9.32827H10.4691L13.5 0Z" fill="#FFB700"/>
<path d="M42.5 0L45.5309 9.32827H55.3393L47.4042 15.0935L50.4351 24.4217L42.5 18.6565L34.5649 24.4217L37.5958 15.0935L29.6607 9.32827H39.4691L42.5 0Z" fill="#FFB700"/>
<path d="M71.5 0L74.5309 9.32827H84.3393L76.4042 15.0935L79.4351 24.4217L71.5 18.6565L63.5649 24.4217L66.5958 15.0935L58.6607 9.32827H68.4691L71.5 0Z" fill="#FFB700"/>
<path d="M100.5 0L103.531 9.32827H113.339L105.404 15.0935L108.435 24.4217L100.5 18.6565L92.5649 24.4217L95.5958 15.0935L87.6607 9.32827H97.4691L100.5 0Z" fill="#FFB700"/>
<path d="M129.5 0L132.531 9.32827H142.339L134.404 15.0935L137.435 24.4217L129.5 18.6565L121.565 24.4217L124.596 15.0935L116.661 9.32827H126.469L129.5 0Z" fill="#FFB700"/>
</svg>
