<svg width="213" height="46" viewBox="0 0 213 46" fill="none" xmlns="http://www.w3.org/2000/svg">
<path d="M19.9839 45.5L20.4919 35.8635C20.4993 35.705 20.4707 35.547 20.4081 35.4009C20.3455 35.2548 20.2506 35.1245 20.1304 35.0195C20.0101 34.9145 19.8676 34.8375 19.7133 34.7942C19.559 34.7509 19.3968 34.7423 19.2387 34.7692L9.54032 36.4553L10.85 32.8821C10.9031 32.74 10.9099 32.5849 10.8694 32.4387C10.8289 32.2925 10.7432 32.1625 10.6242 32.067L0 23.5583L2.39355 22.4529C2.5552 22.3773 2.68341 22.246 2.75409 22.0836C2.82478 21.9211 2.83307 21.7388 2.77742 21.5707L0.677419 15.1836L6.79677 16.4677C6.96256 16.5019 7.1352 16.4784 7.28542 16.401C7.43564 16.3237 7.55419 16.1973 7.62097 16.0434L8.80645 13.2854L13.5823 18.3548C13.6915 18.4688 13.8351 18.5446 13.9915 18.571C14.148 18.5973 14.3089 18.5728 14.4501 18.5011C14.5913 18.4294 14.7051 18.3144 14.7746 18.1732C14.8441 18.0321 14.8655 17.8725 14.8355 17.7184L12.5323 5.97146L16.2242 8.08189C16.3109 8.13213 16.4071 8.16424 16.5068 8.17622C16.6065 8.18819 16.7077 8.17979 16.804 8.15153C16.9003 8.12326 16.9898 8.07574 17.0668 8.0119C17.1437 7.94806 17.2067 7.86927 17.2516 7.7804L21 0.5L24.7484 7.7804C24.7933 7.86927 24.8563 7.94806 24.9332 8.0119C25.0102 8.07574 25.0997 8.12326 25.196 8.15153C25.2923 8.17979 25.3935 8.18819 25.4932 8.17622C25.5929 8.16424 25.6891 8.13213 25.7758 8.08189L29.4677 5.97146L27.1645 17.7184C27.1345 17.8725 27.1559 18.0321 27.2254 18.1732C27.2949 18.3144 27.4087 18.4294 27.5499 18.5011C27.6911 18.5728 27.852 18.5973 28.0085 18.571C28.1649 18.5446 28.3085 18.4688 28.4177 18.3548L33.1936 13.2854L34.379 16.0434C34.4458 16.1973 34.5644 16.3237 34.7146 16.401C34.8648 16.4784 35.0374 16.5019 35.2032 16.4677L41.3226 15.1836L39.2226 21.5707C39.1669 21.7388 39.1752 21.9211 39.2459 22.0836C39.3166 22.246 39.4448 22.3773 39.6065 22.4529L42 23.5583L31.3758 32.067C31.2568 32.1625 31.1711 32.2925 31.1306 32.4387C31.0901 32.5849 31.0969 32.74 31.15 32.8821L32.4597 36.4553L22.7613 34.7692C22.6032 34.7423 22.441 34.7509 22.2867 34.7942C22.1324 34.8375 21.9899 34.9145 21.8696 35.0195C21.7494 35.1245 21.6545 35.2548 21.5919 35.4009C21.5293 35.547 21.5007 35.705 21.5081 35.8635L22.0161 45.5H19.9839Z" fill="#AC000A"/>
<path d="M58.2797 34C56.4785 34 54.9678 33.736 53.7477 33.208C52.5469 32.6604 51.6269 31.9564 50.9878 31.096C50.368 30.216 50.0387 29.2969 50 28.3387C50 28.1627 50.0581 28.016 50.1743 27.8987C50.2905 27.7813 50.4358 27.7227 50.6101 27.7227H53.1957C53.4475 27.7227 53.6315 27.7813 53.7477 27.8987C53.8832 27.9964 53.9994 28.1236 54.0963 28.28C54.2125 28.6516 54.4352 29.0231 54.7645 29.3947C55.0937 29.7467 55.5392 30.04 56.1008 30.2747C56.6819 30.5093 57.4082 30.6267 58.2797 30.6267C59.6742 30.6267 60.7104 30.392 61.3883 29.9227C62.0855 29.4533 62.4341 28.8178 62.4341 28.016C62.4341 27.4489 62.2501 26.9991 61.8821 26.6667C61.5141 26.3147 60.9428 26.0018 60.1681 25.728C59.4127 25.4347 58.4056 25.1316 57.1467 24.8187C55.6941 24.4667 54.474 24.0462 53.4862 23.5573C52.5178 23.0489 51.7818 22.4133 51.2783 21.6507C50.7941 20.888 50.552 19.92 50.552 18.7467C50.552 17.6124 50.8522 16.6053 51.4526 15.7253C52.0724 14.8453 52.9439 14.1511 54.0672 13.6427C55.2099 13.1342 56.5657 12.88 58.1345 12.88C59.3934 12.88 60.507 13.056 61.4754 13.408C62.4438 13.7404 63.2476 14.1902 63.8867 14.7573C64.5258 15.3049 65.01 15.9013 65.3393 16.5467C65.6879 17.1724 65.8719 17.7884 65.8913 18.3947C65.8913 18.5511 65.8332 18.6978 65.7169 18.8347C65.6201 18.952 65.4749 19.0107 65.2812 19.0107H62.5794C62.4244 19.0107 62.2695 18.9716 62.1145 18.8933C61.9596 18.8151 61.8337 18.6684 61.7369 18.4533C61.6207 17.8471 61.243 17.3289 60.6039 16.8987C59.9647 16.4684 59.1416 16.2533 58.1345 16.2533C57.0886 16.2533 56.2461 16.4489 55.607 16.84C54.9678 17.2311 54.6483 17.8373 54.6483 18.6587C54.6483 19.2062 54.8032 19.6658 55.1131 20.0373C55.4423 20.3893 55.9556 20.7022 56.6528 20.976C57.3694 21.2498 58.3088 21.5431 59.4708 21.856C61.1171 22.2276 62.4632 22.6578 63.509 23.1467C64.5549 23.6356 65.3199 24.2613 65.8041 25.024C66.2883 25.7671 66.5304 26.7156 66.5304 27.8693C66.5304 29.16 66.1818 30.2649 65.4845 31.184C64.8067 32.0836 63.848 32.7778 62.6084 33.2667C61.3689 33.7556 59.926 34 58.2797 34Z" fill="black"/>
<path d="M76.0187 34C73.8689 34 72.1645 33.3742 70.9056 32.1227C69.6467 30.8711 68.9688 29.0916 68.872 26.784C68.8526 26.5884 68.843 26.344 68.843 26.0507C68.843 25.7378 68.8526 25.4933 68.872 25.3173C68.9495 23.8507 69.2787 22.5796 69.8598 21.504C70.4602 20.4284 71.2833 19.6071 72.3291 19.04C73.375 18.4533 74.6049 18.16 76.0187 18.16C77.5875 18.16 78.9045 18.4924 79.9697 19.1573C81.035 19.8027 81.8387 20.712 82.381 21.8853C82.9233 23.0391 83.1945 24.3787 83.1945 25.904V26.52C83.1945 26.7156 83.1267 26.8818 82.9911 27.0187C82.8555 27.1556 82.6812 27.224 82.4682 27.224H72.823C72.823 27.224 72.823 27.2533 72.823 27.312C72.823 27.3707 72.823 27.4196 72.823 27.4587C72.8424 28.1431 72.9683 28.7787 73.2007 29.3653C73.4525 29.9324 73.8108 30.392 74.2756 30.744C74.7598 31.096 75.3312 31.272 75.9897 31.272C76.532 31.272 76.9871 31.1938 77.3551 31.0373C77.7231 30.8613 78.0233 30.6658 78.2557 30.4507C78.4881 30.2356 78.6527 30.0596 78.7496 29.9227C78.9239 29.688 79.0595 29.5511 79.1563 29.512C79.2725 29.4533 79.4371 29.424 79.6502 29.424H82.1486C82.3423 29.424 82.4972 29.4827 82.6134 29.6C82.749 29.7173 82.8071 29.864 82.7877 30.04C82.7684 30.3529 82.6038 30.7342 82.2939 31.184C82.0034 31.6338 81.5773 32.0738 81.0156 32.504C80.4539 32.9342 79.747 33.296 78.8948 33.5893C78.062 33.8631 77.1033 34 76.0187 34ZM72.823 24.76H79.2434V24.672C79.2434 23.9093 79.1176 23.2444 78.8658 22.6773C78.614 22.1102 78.246 21.6604 77.7618 21.328C77.2776 20.9956 76.6966 20.8293 76.0187 20.8293C75.3408 20.8293 74.7598 20.9956 74.2756 21.328C73.7914 21.6604 73.4234 22.1102 73.1716 22.6773C72.9392 23.2444 72.823 23.9093 72.823 24.672V24.76Z" fill="black"/>
<path d="M87.0046 33.7067C86.8109 33.7067 86.6462 33.6382 86.5107 33.5013C86.3751 33.3644 86.3073 33.1982 86.3073 33.0027V13.584C86.3073 13.3884 86.3751 13.2222 86.5107 13.0853C86.6462 12.9484 86.8109 12.88 87.0046 12.88H89.4158C89.6095 12.88 89.7741 12.9484 89.9097 13.0853C90.0453 13.2222 90.1131 13.3884 90.1131 13.584V33.0027C90.1131 33.1982 90.0453 33.3644 89.9097 33.5013C89.7741 33.6382 89.6095 33.7067 89.4158 33.7067H87.0046Z" fill="black"/>
<path d="M96.2909 33.7067C96.0972 33.7067 95.9326 33.6382 95.797 33.5013C95.6614 33.3644 95.5936 33.1982 95.5936 33.0027V21.5627H93.2404C93.0468 21.5627 92.8821 21.4942 92.7466 21.3573C92.611 21.2204 92.5432 21.0542 92.5432 20.8587V19.1573C92.5432 18.9618 92.611 18.7956 92.7466 18.6587C92.8821 18.5218 93.0468 18.4533 93.2404 18.4533H95.5936V17.2507C95.5936 16.0773 95.8067 15.1093 96.2328 14.3467C96.6589 13.5644 97.2883 12.9778 98.1211 12.5867C98.9539 12.1956 100.009 12 101.288 12H103.263C103.476 12 103.641 12.0684 103.757 12.2053C103.893 12.3422 103.961 12.5084 103.961 12.704V14.4053C103.961 14.6009 103.893 14.7671 103.757 14.904C103.641 15.0409 103.476 15.1093 103.263 15.1093H101.404C100.629 15.1093 100.097 15.3049 99.8061 15.696C99.5156 16.0871 99.3703 16.6542 99.3703 17.3973V18.4533H102.973C103.186 18.4533 103.35 18.5218 103.467 18.6587C103.602 18.7956 103.67 18.9618 103.67 19.1573V20.8587C103.67 21.0542 103.602 21.2204 103.467 21.3573C103.35 21.4942 103.186 21.5627 102.973 21.5627H99.3703V33.0027C99.3703 33.1982 99.3026 33.3644 99.167 33.5013C99.0314 33.6382 98.8668 33.7067 98.6731 33.7067H96.2909Z" fill="black"/>
<path d="M113.404 34C111.603 34 110.092 33.736 108.872 33.208C107.671 32.6604 106.751 31.9564 106.112 31.096C105.492 30.216 105.163 29.2969 105.124 28.3387C105.124 28.1627 105.182 28.016 105.299 27.8987C105.415 27.7813 105.56 27.7227 105.734 27.7227H108.32C108.572 27.7227 108.756 27.7813 108.872 27.8987C109.008 27.9964 109.124 28.1236 109.221 28.28C109.337 28.6516 109.56 29.0231 109.889 29.3947C110.218 29.7467 110.664 30.04 111.225 30.2747C111.806 30.5093 112.533 30.6267 113.404 30.6267C114.799 30.6267 115.835 30.392 116.513 29.9227C117.21 29.4533 117.558 28.8178 117.558 28.016C117.558 27.4489 117.375 26.9991 117.007 26.6667C116.639 26.3147 116.067 26.0018 115.292 25.728C114.537 25.4347 113.53 25.1316 112.271 24.8187C110.819 24.4667 109.598 24.0462 108.611 23.5573C107.642 23.0489 106.906 22.4133 106.403 21.6507C105.918 20.888 105.676 19.92 105.676 18.7467C105.676 17.6124 105.977 16.6053 106.577 15.7253C107.197 14.8453 108.068 14.1511 109.192 13.6427C110.334 13.1342 111.69 12.88 113.259 12.88C114.518 12.88 115.631 13.056 116.6 13.408C117.568 13.7404 118.372 14.1902 119.011 14.7573C119.65 15.3049 120.134 15.9013 120.464 16.5467C120.812 17.1724 120.996 17.7884 121.016 18.3947C121.016 18.5511 120.958 18.6978 120.841 18.8347C120.745 18.952 120.599 19.0107 120.406 19.0107H117.704C117.549 19.0107 117.394 18.9716 117.239 18.8933C117.084 18.8151 116.958 18.6684 116.861 18.4533C116.745 17.8471 116.367 17.3289 115.728 16.8987C115.089 16.4684 114.266 16.2533 113.259 16.2533C112.213 16.2533 111.37 16.4489 110.731 16.84C110.092 17.2311 109.773 17.8373 109.773 18.6587C109.773 19.2062 109.928 19.6658 110.237 20.0373C110.567 20.3893 111.08 20.7022 111.777 20.976C112.494 21.2498 113.433 21.5431 114.595 21.856C116.241 22.2276 117.588 22.6578 118.633 23.1467C119.679 23.6356 120.444 24.2613 120.928 25.024C121.413 25.7671 121.655 26.7156 121.655 27.8693C121.655 29.16 121.306 30.2649 120.609 31.184C119.931 32.0836 118.972 32.7778 117.733 33.2667C116.493 33.7556 115.05 34 113.404 34Z" fill="black"/>
<path d="M131.172 34C129.778 34 128.548 33.736 127.483 33.208C126.437 32.68 125.614 31.9173 125.013 30.92C124.432 29.9031 124.113 28.6809 124.054 27.2533C124.035 26.96 124.025 26.5787 124.025 26.1093C124.025 25.6204 124.035 25.2196 124.054 24.9067C124.113 23.4791 124.432 22.2667 125.013 21.2693C125.614 20.2524 126.437 19.48 127.483 18.952C128.548 18.424 129.778 18.16 131.172 18.16C132.412 18.16 133.467 18.336 134.339 18.688C135.21 19.04 135.927 19.48 136.489 20.008C137.05 20.536 137.467 21.0933 137.738 21.68C138.028 22.2471 138.183 22.7653 138.203 23.2347C138.222 23.4498 138.154 23.6258 137.999 23.7627C137.864 23.88 137.699 23.9387 137.505 23.9387H134.949C134.755 23.9387 134.6 23.8898 134.484 23.792C134.387 23.6942 134.29 23.5476 134.194 23.352C133.903 22.5698 133.516 22.0222 133.031 21.7093C132.567 21.3769 131.966 21.2107 131.23 21.2107C130.262 21.2107 129.487 21.5236 128.906 22.1493C128.344 22.7556 128.044 23.7236 128.006 25.0533C127.967 25.7964 127.967 26.4809 128.006 27.1067C128.044 28.456 128.344 29.4338 128.906 30.04C129.487 30.6462 130.262 30.9493 131.23 30.9493C131.986 30.9493 132.596 30.7929 133.061 30.48C133.525 30.1476 133.903 29.5902 134.194 28.808C134.29 28.6124 134.387 28.4658 134.484 28.368C134.6 28.2702 134.755 28.2213 134.949 28.2213H137.505C137.699 28.2213 137.864 28.2898 137.999 28.4267C138.154 28.544 138.222 28.7102 138.203 28.9253C138.183 29.2773 138.086 29.6782 137.912 30.128C137.757 30.5582 137.496 31.008 137.128 31.4773C136.779 31.9271 136.334 32.3476 135.791 32.7387C135.249 33.1102 134.591 33.4133 133.816 33.648C133.061 33.8827 132.179 34 131.172 34Z" fill="black"/>
<path d="M145.619 34C144.612 34 143.702 33.8044 142.888 33.4133C142.075 33.0027 141.426 32.4649 140.942 31.8C140.477 31.1156 140.245 30.3529 140.245 29.512C140.245 28.1431 140.787 27.0578 141.872 26.256C142.976 25.4347 144.428 24.8871 146.229 24.6133L150.209 24.0267V23.4107C150.209 22.5893 150.006 21.9538 149.599 21.504C149.193 21.0542 148.495 20.8293 147.508 20.8293C146.81 20.8293 146.239 20.976 145.794 21.2693C145.367 21.5431 145.048 21.9147 144.835 22.384C144.68 22.6382 144.457 22.7653 144.167 22.7653H141.872C141.659 22.7653 141.494 22.7067 141.378 22.5893C141.281 22.472 141.232 22.3156 141.232 22.12C141.252 21.8071 141.378 21.4258 141.61 20.976C141.843 20.5262 142.21 20.096 142.714 19.6853C143.218 19.2551 143.866 18.8933 144.661 18.6C145.455 18.3067 146.413 18.16 147.537 18.16C148.757 18.16 149.783 18.3164 150.616 18.6293C151.468 18.9227 152.146 19.3236 152.65 19.832C153.153 20.3404 153.521 20.9369 153.754 21.6213C153.986 22.3058 154.102 23.0293 154.102 23.792V33.0027C154.102 33.1982 154.035 33.3644 153.899 33.5013C153.763 33.6382 153.599 33.7067 153.405 33.7067H151.052C150.839 33.7067 150.665 33.6382 150.529 33.5013C150.413 33.3644 150.355 33.1982 150.355 33.0027V31.8587C150.103 32.2302 149.764 32.5822 149.338 32.9147C148.912 33.2276 148.389 33.4916 147.769 33.7067C147.169 33.9022 146.452 34 145.619 34ZM146.607 31.2133C147.285 31.2133 147.895 31.0667 148.437 30.7733C148.999 30.48 149.435 30.0302 149.745 29.424C150.074 28.7982 150.238 28.016 150.238 27.0773V26.4613L147.333 26.9307C146.191 27.1067 145.338 27.3902 144.777 27.7813C144.215 28.1724 143.934 28.6516 143.934 29.2187C143.934 29.6489 144.06 30.0204 144.312 30.3333C144.583 30.6267 144.922 30.8516 145.329 31.008C145.735 31.1449 146.162 31.2133 146.607 31.2133Z" fill="black"/>
<path d="M158.527 33.7067C158.333 33.7067 158.168 33.6382 158.033 33.5013C157.897 33.3644 157.829 33.1982 157.829 33.0027V19.1573C157.829 18.9618 157.897 18.7956 158.033 18.6587C158.168 18.5218 158.333 18.4533 158.527 18.4533H160.909C161.102 18.4533 161.267 18.5218 161.403 18.6587C161.538 18.7956 161.606 18.9618 161.606 19.1573V20.36C162.11 19.7342 162.749 19.216 163.523 18.8053C164.318 18.3751 165.296 18.16 166.458 18.16C167.639 18.16 168.666 18.4338 169.537 18.9813C170.409 19.5093 171.077 20.2622 171.542 21.24C172.026 22.2178 172.268 23.3911 172.268 24.76V33.0027C172.268 33.1982 172.2 33.3644 172.065 33.5013C171.929 33.6382 171.764 33.7067 171.571 33.7067H169.014C168.821 33.7067 168.656 33.6382 168.52 33.5013C168.385 33.3644 168.317 33.1982 168.317 33.0027V24.936C168.317 23.8018 168.036 22.912 167.474 22.2667C166.932 21.6213 166.138 21.2987 165.092 21.2987C164.085 21.2987 163.281 21.6213 162.681 22.2667C162.081 22.912 161.78 23.8018 161.78 24.936V33.0027C161.78 33.1982 161.713 33.3644 161.577 33.5013C161.441 33.6382 161.277 33.7067 161.083 33.7067H158.527Z" fill="black"/>
<path d="M176.481 33.7067C176.287 33.7067 176.123 33.6382 175.987 33.5013C175.852 33.3644 175.784 33.1982 175.784 33.0027V30.0987C175.784 29.8836 175.852 29.7076 175.987 29.5707C176.123 29.4338 176.287 29.3653 176.481 29.3653H179.386C179.58 29.3653 179.745 29.4338 179.88 29.5707C180.016 29.7076 180.084 29.8836 180.084 30.0987V33.0027C180.084 33.1982 180.016 33.3644 179.88 33.5013C179.745 33.6382 179.58 33.7067 179.386 33.7067H176.481Z" fill="black"/>
<path d="M190.07 34C188.675 34 187.446 33.736 186.38 33.208C185.334 32.68 184.511 31.9173 183.911 30.92C183.33 29.9031 183.01 28.6809 182.952 27.2533C182.933 26.96 182.923 26.5787 182.923 26.1093C182.923 25.6204 182.933 25.2196 182.952 24.9067C183.01 23.4791 183.33 22.2667 183.911 21.2693C184.511 20.2524 185.334 19.48 186.38 18.952C187.446 18.424 188.675 18.16 190.07 18.16C191.309 18.16 192.365 18.336 193.236 18.688C194.108 19.04 194.825 19.48 195.386 20.008C195.948 20.536 196.364 21.0933 196.636 21.68C196.926 22.2471 197.081 22.7653 197.1 23.2347C197.12 23.4498 197.052 23.6258 196.897 23.7627C196.761 23.88 196.597 23.9387 196.403 23.9387H193.847C193.653 23.9387 193.498 23.8898 193.382 23.792C193.285 23.6942 193.188 23.5476 193.091 23.352C192.801 22.5698 192.413 22.0222 191.929 21.7093C191.464 21.3769 190.864 21.2107 190.128 21.2107C189.16 21.2107 188.385 21.5236 187.804 22.1493C187.242 22.7556 186.942 23.7236 186.903 25.0533C186.864 25.7964 186.864 26.4809 186.903 27.1067C186.942 28.456 187.242 29.4338 187.804 30.04C188.385 30.6462 189.16 30.9493 190.128 30.9493C190.883 30.9493 191.493 30.7929 191.958 30.48C192.423 30.1476 192.801 29.5902 193.091 28.808C193.188 28.6124 193.285 28.4658 193.382 28.368C193.498 28.2702 193.653 28.2213 193.847 28.2213H196.403C196.597 28.2213 196.761 28.2898 196.897 28.4267C197.052 28.544 197.12 28.7102 197.1 28.9253C197.081 29.2773 196.984 29.6782 196.81 30.128C196.655 30.5582 196.393 31.008 196.025 31.4773C195.677 31.9271 195.231 32.3476 194.689 32.7387C194.147 33.1102 193.488 33.4133 192.714 33.648C191.958 33.8827 191.077 34 190.07 34Z" fill="black"/>
<path d="M204.517 34C203.51 34 202.6 33.8044 201.786 33.4133C200.973 33.0027 200.324 32.4649 199.84 31.8C199.375 31.1156 199.142 30.3529 199.142 29.512C199.142 28.1431 199.685 27.0578 200.769 26.256C201.873 25.4347 203.326 24.8871 205.127 24.6133L209.107 24.0267V23.4107C209.107 22.5893 208.904 21.9538 208.497 21.504C208.09 21.0542 207.393 20.8293 206.405 20.8293C205.708 20.8293 205.137 20.976 204.691 21.2693C204.265 21.5431 203.946 21.9147 203.733 22.384C203.578 22.6382 203.355 22.7653 203.064 22.7653H200.769C200.556 22.7653 200.392 22.7067 200.275 22.5893C200.179 22.472 200.13 22.3156 200.13 22.12C200.149 21.8071 200.275 21.4258 200.508 20.976C200.74 20.5262 201.108 20.096 201.612 19.6853C202.115 19.2551 202.764 18.8933 203.558 18.6C204.352 18.3067 205.311 18.16 206.434 18.16C207.654 18.16 208.681 18.3164 209.514 18.6293C210.366 18.9227 211.044 19.3236 211.547 19.832C212.051 20.3404 212.419 20.9369 212.651 21.6213C212.884 22.3058 213 23.0293 213 23.792V33.0027C213 33.1982 212.932 33.3644 212.797 33.5013C212.661 33.6382 212.496 33.7067 212.303 33.7067H209.95C209.737 33.7067 209.562 33.6382 209.427 33.5013C209.31 33.3644 209.252 33.1982 209.252 33.0027V31.8587C209.001 32.2302 208.662 32.5822 208.236 32.9147C207.809 33.2276 207.287 33.4916 206.667 33.7067C206.066 33.9022 205.35 34 204.517 34ZM205.505 31.2133C206.183 31.2133 206.793 31.0667 207.335 30.7733C207.897 30.48 208.332 30.0302 208.642 29.424C208.972 28.7982 209.136 28.016 209.136 27.0773V26.4613L206.231 26.9307C205.088 27.1067 204.236 27.3902 203.674 27.7813C203.113 28.1724 202.832 28.6516 202.832 29.2187C202.832 29.6489 202.958 30.0204 203.21 30.3333C203.481 30.6267 203.82 30.8516 204.226 31.008C204.633 31.1449 205.059 31.2133 205.505 31.2133Z" fill="black"/>
</svg>
